<svg id="visual" viewBox="0 0 960 300" width="960" height="300" xmlns="http://www.w3.org/2000/svg" xmlns:xlink="http://www.w3.org/1999/xlink" version="1.1"><path d="M0 130L17.8 130.8C35.7 131.7 71.3 133.3 106.8 143C142.3 152.7 177.7 170.3 213.2 172C248.7 173.7 284.3 159.3 320 154.7C355.7 150 391.3 155 426.8 145.5C462.3 136 497.7 112 533.2 102.5C568.7 93 604.3 98 640 109C675.7 120 711.3 137 746.8 138.2C782.3 139.3 817.7 124.7 853.2 111.7C888.7 98.7 924.3 87.3 942.2 81.7L960 76L960 0L942.2 0C924.3 0 888.7 0 853.2 0C817.7 0 782.3 0 746.8 0C711.3 0 675.7 0 640 0C604.3 0 568.7 0 533.2 0C497.7 0 462.3 0 426.8 0C391.3 0 355.7 0 320 0C284.3 0 248.7 0 213.2 0C177.7 0 142.3 0 106.8 0C71.3 0 35.7 0 17.8 0L0 0Z" fill="#6759B1" stroke-linecap="round" stroke-linejoin="miter"></path></svg>