<svg id="visual" viewBox="0 0 960 300" width="960" height="300" xmlns="http://www.w3.org/2000/svg" xmlns:xlink="http://www.w3.org/1999/xlink" version="1.1"><path d="M0 128L26.7 140.2C53.3 152.3 106.7 176.7 160 192.3C213.3 208 266.7 215 320 205.3C373.3 195.7 426.7 169.3 480 157C533.3 144.7 586.7 146.3 640 139.8C693.3 133.3 746.7 118.7 800 127.3C853.3 136 906.7 168 933.3 184L960 200L960 0L933.3 0C906.7 0 853.3 0 800 0C746.7 0 693.3 0 640 0C586.7 0 533.3 0 480 0C426.7 0 373.3 0 320 0C266.7 0 213.3 0 160 0C106.7 0 53.3 0 26.7 0L0 0Z" fill="#BC73E6" stroke-linecap="round" stroke-linejoin="miter"></path></svg>