<svg id="visual" viewBox="0 0 960 300" width="960" height="300" xmlns="http://www.w3.org/2000/svg" xmlns:xlink="http://www.w3.org/1999/xlink" version="1.1"><path d="M0 162L16 166.7C32 171.3 64 180.7 96 190.5C128 200.3 160 210.7 192 204C224 197.3 256 173.7 288 147.2C320 120.7 352 91.3 384 86.2C416 81 448 100 480 105C512 110 544 101 576 88.7C608 76.3 640 60.7 672 59.7C704 58.7 736 72.3 768 106.5C800 140.7 832 195.3 864 210.3C896 225.3 928 200.7 944 188.3L960 176L960 0L944 0C928 0 896 0 864 0C832 0 800 0 768 0C736 0 704 0 672 0C640 0 608 0 576 0C544 0 512 0 480 0C448 0 416 0 384 0C352 0 320 0 288 0C256 0 224 0 192 0C160 0 128 0 96 0C64 0 32 0 16 0L0 0Z" fill="#805499" stroke-linecap="round" stroke-linejoin="miter"></path></svg>