<svg id="visual" viewBox="0 0 960 300" width="960" height="300" xmlns="http://www.w3.org/2000/svg" xmlns:xlink="http://www.w3.org/1999/xlink" version="1.1"><path d="M0 135L20 153.3C40 171.7 80 208.3 120 229C160 249.7 200 254.3 240 255.5C280 256.7 320 254.3 360 234C400 213.7 440 175.3 480 147.2C520 119 560 101 600 84.5C640 68 680 53 720 56.3C760 59.7 800 81.3 840 110.3C880 139.3 920 175.7 940 193.8L960 212L960 0L940 0C920 0 880 0 840 0C800 0 760 0 720 0C680 0 640 0 600 0C560 0 520 0 480 0C440 0 400 0 360 0C320 0 280 0 240 0C200 0 160 0 120 0C80 0 40 0 20 0L0 0Z" fill="#6759B1" stroke-linecap="round" stroke-linejoin="miter"></path></svg>